<?xml version="1.0" encoding="UTF-8"?><svg xmlns="http://www.w3.org/2000/svg" width="98.9" height="22.4" viewBox="0 0 98.9 22.4"><defs><style>.k{fill:#f5f5f5;}.l{fill:#ededed;}</style></defs><g id="a"/><g id="b"/><g id="c"/><g id="d"/><g id="e"/><g id="f"><path class="k" d="M0,15.5C0,14.7,.4,14,1.1,13.6,5.6,10.7,24.4,0,52.6,0s41.1,5.9,45.1,8c.8,.4,1.2,1.2,1.2,2,0,0-9.8-2.9-47.5-2.9S0,15.5,0,15.5Z"/><path class="l" d="M0,22.4H0v-6.9S13.7,7.1,51.4,7.1s47.5,2.9,47.5,2.9v11h0c-7.7-1.3-21.2-2.6-44.1-2.6C26.3,18.4,8.9,20.7,0,22.4Z"/></g><g id="g"/><g id="h"/><g id="i"/><g id="j"/></svg>