<?xml version="1.0" encoding="UTF-8"?><svg xmlns="http://www.w3.org/2000/svg" width="178.5" height="104" viewBox="0 0 178.5 104"><defs><style>.k{fill:#e6e6e6;}.l{fill:#fff;isolation:isolate;opacity:.25;}</style></defs><g id="a"/><g id="b"/><g id="c"/><g id="d"><g><g><path class="k" d="M124.5,73.65c1.4-2,1.2-2.9,1.2-2.9,0,0,.2-.9-1.2-2.9s-15-13.6-15.7-14-28.5-2.2-31.4,1.3-2.6,15.6-2.6,15.6c0,0-.3,12.1,2.6,15.6s30.7,1.7,31.4,1.3,14.3-12,15.7-14Z"/><path class="l" d="M124.5,73.65c1.4-2,1.2-2.9,1.2-2.9,0,0,.2-.9-1.2-2.9-.9-1.3-6.9-6.6-11.2-10.3-2.1,3.9-3.4,8.4-3.4,13.2s1.2,9.3,3.4,13.2c4.3-3.7,10.3-9,11.2-10.3Z"/></g><g><path class="k" d="M52.2,102.75c2,1.4,2.9,1.2,2.9,1.2,0,0,.9,.2,2.9-1.2s13.6-15,14-15.7,2.2-28.5-1.3-31.4-15.6-2.6-15.6-2.6c0,0-12.1-.2-15.6,2.6s-1.7,30.7-1.3,31.4c.4,.7,12,14.3,14,15.7Z"/><path class="l" d="M52.2,102.75c2,1.4,2.9,1.2,2.9,1.2,0,0,.9,.2,2.9-1.2,1.3-.9,6.6-6.9,10.3-11.2-3.9-2.1-8.4-3.4-13.2-3.4s-9.3,1.2-13.2,3.4c3.7,4.3,9,10.3,10.3,11.2Z"/></g><g><path class="k" d="M175.9,55.15c-2.9-3.5-30.7-1.7-31.4-1.3-.7,.4-14.3,12-15.7,14-1.4,2-1.2,2.9-1.2,2.9,0,0-.2,.9,1.2,2.9s15,13.6,15.7,14,28.5,2.2,31.4-1.3,2.6-15.6,2.6-15.6c0,0,.3-12.1-2.6-15.6Z"/><path class="l" d="M140.1,57.65c-4.3,3.7-10.3,9-11.2,10.3-1.4,2-1.2,2.9-1.2,2.9,0,0-.2,.9,1.2,2.9,.9,1.3,6.9,6.6,11.2,10.3,2.1-3.9,3.4-8.4,3.4-13.2s-1.3-9.3-3.4-13.2Z"/></g><g><path class="k" d="M20.6,54.25c-2-1.4-2.9-1.2-2.9-1.2,0,0-.9-.2-2.9,1.2S1.2,69.25,.8,69.95s-2.2,28.5,1.3,31.4,15.6,2.6,15.6,2.6c0,0,12.1,.3,15.6-2.6,3.5-2.9,1.7-30.7,1.3-31.4-.4-.7-12-14.3-14-15.7Z"/><path class="l" d="M20.6,54.25c-2-1.4-2.9-1.2-2.9-1.2,0,0-.9-.2-2.9,1.2-1.3,.9-6.6,6.9-10.3,11.2,3.9,2.1,8.4,3.4,13.2,3.4s9.3-1.2,13.2-3.4c-3.7-4.3-9-10.3-10.3-11.2Z"/></g></g></g><g id="e"/><g id="f"/><g id="g"/><g id="h"/><g id="i"/><g id="j"/></svg>