<?xml version="1.0" encoding="UTF-8"?><svg xmlns="http://www.w3.org/2000/svg" width="224" height="112.3" viewBox="0 0 224 112.3"><defs><style>.k{fill:#f0f0f0;}.l{fill:#009898;}.m{fill:#be1e5f;}.n{fill:#824e20;}.o{fill:#e6e6e6;}.p{fill:#079647;}</style></defs><g id="a"/><g id="b"/><g id="c"/><g id="d"/><g id="e"><g><g><g><path class="o" d="M83.8,111.25c-14.5,0-26.3-11.8-26.3-26.3s11.8-26.2,26.3-26.2,26.2,11.8,26.2,26.3-11.8,26.2-26.2,26.2Z"/><path class="k" d="M83.8,59.75c13.9,0,25.3,11.3,25.3,25.2s-11.3,25.3-25.3,25.3-25.3-11.3-25.3-25.2,11.3-25.3,25.3-25.3m0-2c-15,0-27.3,12.2-27.3,27.2s12.2,27.3,27.3,27.3,27.2-12.2,27.2-27.2-12.2-27.3-27.2-27.3h0Z"/></g><path class="l" d="M83.8,66.15c-10.4,0-18.9,8.5-18.9,18.9s8.5,18.9,18.9,18.9,18.9-8.5,18.9-18.9c-.1-10.5-8.5-18.9-18.9-18.9Zm0,34.9c-8.9,0-16-7.2-16-16s7.2-16,16-16,16,7.2,16,16-7.2,16-16,16Z"/></g><g><g><path class="o" d="M27.2,111.25c-14.4,0-26.2-11.7-26.2-26.2s11.8-26.2,26.3-26.2,26.3,11.8,26.3,26.2-11.9,26.2-26.4,26.2Z"/><path class="k" d="M27.3,59.75c13.9,0,25.3,11.3,25.3,25.2s-11.3,25.3-25.3,25.3S2,98.95,2,85.05s11.3-25.3,25.3-25.3m0-2C12.2,57.75,0,70.05,0,85.05s12.2,27.3,27.3,27.3,27.3-12.2,27.3-27.3c-.1-15-12.3-27.3-27.3-27.3h0Z"/></g><polygon class="n" points="41.6 72.65 39.6 70.65 27.3 83.05 14.9 70.65 12.9 72.65 25.2 85.05 12.9 97.35 14.9 99.45 27.3 87.05 39.6 99.45 41.6 97.35 29.3 85.05 41.6 72.65"/></g><g><g><path class="o" d="M140.3,111.25c-14.5,0-26.2-11.8-26.2-26.3s11.8-26.2,26.2-26.2,26.3,11.8,26.3,26.2-11.9,26.3-26.3,26.3Z"/><path class="k" d="M140.3,59.75c13.9,0,25.3,11.3,25.3,25.2s-11.3,25.3-25.3,25.3-25.3-11.3-25.3-25.2,11.3-25.3,25.3-25.3m0-2c-15,0-27.3,12.2-27.3,27.2s12.2,27.3,27.3,27.3,27.3-12.2,27.3-27.3-12.3-27.2-27.3-27.2h0Z"/></g><path class="p" d="M151.8,70.65h-25.8v28.6h28.6v-28.6h-2.8Zm0,25.9h-23v-23h23v23Z"/></g><g><g><path class="o" d="M196.7,111.25c-14.5,0-26.3-11.8-26.3-26.3s11.8-26.2,26.3-26.2,26.3,11.8,26.3,26.3-11.8,26.2-26.3,26.2Z"/><path class="k" d="M196.8,59.75c13.9,0,25.3,11.3,25.3,25.2s-11.3,25.3-25.3,25.3-25.3-11.3-25.3-25.2,11.3-25.3,25.3-25.3m0-2c-15,0-27.3,12.2-27.3,27.2s12.2,27.3,27.3,27.3,27.2-12.2,27.2-27.2-12.2-27.3-27.2-27.3h0Z"/></g><path class="m" d="M212.7,93.05l-16-27.6-16,27.6-1.6,2.8h35.2l-1.6-2.8Zm-15.9,0h-12.7l12.7-21.9,12.7,21.9h-12.7Z"/></g></g></g><g id="f"/><g id="g"/><g id="h"/><g id="i"/><g id="j"/></svg>