<?xml version="1.0" encoding="UTF-8"?><svg xmlns="http://www.w3.org/2000/svg" width="42.3" height="42.3" viewBox="0 0 42.3 42.3"><defs><style>.k{fill:#fff;}.l{fill:#fafafa;}.m{fill:#0d0d0d;}</style></defs><g id="a"/><g id="b"/><g id="c"/><g id="d"/><g id="e"/><g id="f"/><g id="g"/><g id="h"/><g id="i"/><g id="j"><g><circle class="l" cx="21.15" cy="21.15" r="20.2"/><path class="k" d="M21.15,42.35C9.45,42.35-.05,32.85-.05,21.15S9.45-.05,21.15-.05s21.2,9.5,21.2,21.2-9.5,21.2-21.2,21.2ZM21.15,1.95C10.55,1.95,1.95,10.55,1.95,21.15s8.6,19.2,19.2,19.2,19.2-8.6,19.2-19.2S31.75,1.95,21.15,1.95Z"/></g><g><path class="m" d="M22.25,27.75V14.95c0-.5,.1-.8,.3-1,.1-.2,.4-.3,.7-.2,.6,.2,.9,.7,.9,1.7v6.9c.8,.4,1.5,.5,2.1,.5s1.2-.2,1.6-.5c1-.7,1.5-1.9,1.5-3.7,0-1.9-.4-3.4-1.2-4.3-.8-1-2.1-1.9-4.1-2.6-1.3-.4-2.5-.8-3.6-1.1s-2-.5-2.9-.7v12.2h0v2.7h0v1.7h0v2.5h0v1.5l4.7,1.5v-3.6h0v-.7Z"/><path class="m" d="M17.25,26.75l-1.7,.6-.9,.4-1.6,.3-1.5-.2c-.3-.2-.4-.4-.2-.6,.1-.1,.2-.1,.3-.2,.1-.1,.3-.1,.4-.2l1.1-.4,4.1-1.5v-2.7l-1.7,.5-5.5,2-1,.4c-1.5,.6-2.2,1.2-2.2,1.8,.1,.8,1,1.5,2.7,1.9,.7,.2,1.4,.3,2.1,.4,.7,.1,1.4,.1,2.2,.1,1,0,2.1-.1,3.3-.3v-2.3h.1Z"/><path class="m" d="M33.05,24.45c-.9-.3-1.7-.5-2.5-.6s-1.7-.2-2.5-.1c-.9,0-1.9,.2-2.8,.3-.8,.2-1.7,.4-2.6,.8v2.8l3.9-1.4,1.6-.5,1.1-.3h1.4c.3,.1,.6,.2,.7,.4,0,.2-.2,.4-.8,.6l-1.4,.5-6.5,2.4v2.7l3.5-1.3,6.4-2.3,.7-.4c1.5-.5,2.2-1.2,2.2-1.9,0-.6-.8-1.2-2.4-1.7Z"/></g></g></svg>