<?xml version="1.0" encoding="UTF-8"?><svg xmlns="http://www.w3.org/2000/svg" width="28.4" height="46.7" viewBox="0 0 28.4 46.7"><defs><style>.k{fill:#fff;}.l{fill:#efeee5;}</style></defs><g id="a"/><g id="b"/><g id="c"/><g id="d"/><g id="e"/><g id="f"/><g id="g"><path class="k" d="M14.2,1.7c6.9,0,12.5,5.6,12.5,12.5v18.3c0,6.9-5.6,12.5-12.5,12.5S1.7,39.4,1.7,32.5V14.2C1.7,7.3,7.3,1.7,14.2,1.7m0-1.7C6.4,0,0,6.4,0,14.2v18.3c0,7.8,6.4,14.2,14.2,14.2s14.2-6.4,14.2-14.2V14.2c0-7.8-6.4-14.2-14.2-14.2h0Z"/><path class="l" d="M14.2,1.7C7.3,1.7,1.7,7.3,1.7,14.2v18.3c0,6.9,5.6,12.5,12.5,12.5s12.5-5.6,12.5-12.5V14.2c0-6.9-5.6-12.5-12.5-12.5Z"/></g><g id="h"/><g id="i"/><g id="j"/></svg>