<?xml version="1.0" encoding="UTF-8"?><svg xmlns="http://www.w3.org/2000/svg" width="806" height="598.9" xmlns:xlink="http://www.w3.org/1999/xlink" viewBox="0 0 806 598.9"><defs><style>.aa{fill:#0f0f0f;}.ab{fill:#fff;}.ac{fill:url(#d);}.ac,.ad,.ae,.af,.ag{isolation:isolate;}.ac,.ah,.af{opacity:.08;}.ai{opacity:.5;}.aj{fill:#b04c37;}.ak{opacity:.06;}.al{fill:#7cb2e8;}.ad{fill:#e6e6e6;opacity:.1;}.am{fill:#40e2a0;}.an{fill:#0b0b0f;}.ao{fill:#ff69f8;}.ap,.aq{opacity:.35;}.ar{fill:#f66;}.as{opacity:.8;}.at{opacity:.3;}.au{opacity:.57;}.ae{opacity:.22;}.av{fill:none;}.aw{fill:#ccc;}.ax{fill:#b3b3b3;}.ay{fill:url(#n);}.b`{opacity:.12;}.ba{fill:#1a1a1a;}.aq{fill:#080808;}.bb{fill:#050505;stroke:#000;stroke-miterlimit:10;stroke-width:2px;}.bc{fill:#f2f2f2;}.af{fill:url(#c);}.bd{opacity:.37;}.ag{opacity:.25;}</style><pattern id="c" x="0" y="0" width="40" height="103" patternTransform="translate(-15711.79 3647.08) rotate(16) scale(.34)" patternUnits="userSpaceOnUse" viewBox="0 0 40 103"><g><rect class="av" width="40" height="103"/><g><polygon class="av" points="0 0 40 0 40 103 0 103 0 0"/><g><polygon class="av" points="0 0 40 0 40 103 0 103 0 0"/><polygon points="34.5 231.8 37.5 231.8 37.5 77.3 34.5 77.3 34.5 231.8"/><polygon points="26.5 231.8 29.5 231.8 29.5 77.3 26.5 77.3 26.5 231.8"/><polygon points="18.5 231.8 21.5 231.8 21.5 77.3 18.5 77.3 18.5 231.8"/><polygon points="10.5 231.8 13.5 231.8 13.5 77.3 10.5 77.3 10.5 231.8"/><polygon points="2.5 231.8 5.5 231.8 5.5 77.3 2.5 77.3 2.5 231.8"/><polygon points="34.5 128.8 37.5 128.8 37.5 -25.7 34.5 -25.7 34.5 128.8"/><polygon points="26.5 128.8 29.5 128.8 29.5 -25.7 26.5 -25.7 26.5 128.8"/><polygon points="18.5 128.8 21.5 128.8 21.5 -25.7 18.5 -25.7 18.5 128.8"/><polygon points="10.5 128.8 13.5 128.8 13.5 -25.7 10.5 -25.7 10.5 128.8"/><polygon points="2.5 128.8 5.5 128.8 5.5 -25.7 2.5 -25.7 2.5 128.8"/><polygon points="34.5 25.8 37.5 25.8 37.5 -128.7 34.5 -128.7 34.5 25.8"/><polygon points="26.5 25.8 29.5 25.8 29.5 -128.7 26.5 -128.7 26.5 25.8"/><polygon points="18.5 25.8 21.5 25.8 21.5 -128.7 18.5 -128.7 18.5 25.8"/><polygon points="10.5 25.8 13.5 25.8 13.5 -128.7 10.5 -128.7 10.5 25.8"/><polygon points="2.5 25.8 5.5 25.8 5.5 -128.7 2.5 -128.7 2.5 25.8"/></g></g></g></pattern><pattern id="d" x="0" y="0" width="40" height="103" patternTransform="translate(-30211.46 3679.27) rotate(164) scale(.34 -.34)" patternUnits="userSpaceOnUse" viewBox="0 0 40 103"><g><rect class="av" width="40" height="103"/><g><polygon class="av" points="0 0 40 0 40 103 0 103 0 0"/><g><polygon class="av" points="0 0 40 0 40 103 0 103 0 0"/><polygon points="34.5 231.8 37.5 231.8 37.5 77.3 34.5 77.3 34.5 231.8"/><polygon points="26.5 231.8 29.5 231.8 29.5 77.3 26.5 77.3 26.5 231.8"/><polygon points="18.5 231.8 21.5 231.8 21.5 77.3 18.5 77.3 18.5 231.8"/><polygon points="10.5 231.8 13.5 231.8 13.5 77.3 10.5 77.3 10.5 231.8"/><polygon points="2.5 231.8 5.5 231.8 5.5 77.3 2.5 77.3 2.5 231.8"/><polygon points="34.5 128.8 37.5 128.8 37.5 -25.7 34.5 -25.7 34.5 128.8"/><polygon points="26.5 128.8 29.5 128.8 29.5 -25.7 26.5 -25.7 26.5 128.8"/><polygon points="18.5 128.8 21.5 128.8 21.5 -25.7 18.5 -25.7 18.5 128.8"/><polygon points="10.5 128.8 13.5 128.8 13.5 -25.7 10.5 -25.7 10.5 128.8"/><polygon points="2.5 128.8 5.5 128.8 5.5 -25.7 2.5 -25.7 2.5 128.8"/><polygon points="34.5 25.8 37.5 25.8 37.5 -128.7 34.5 -128.7 34.5 25.8"/><polygon points="26.5 25.8 29.5 25.8 29.5 -128.7 26.5 -128.7 26.5 25.8"/><polygon points="18.5 25.8 21.5 25.8 21.5 -128.7 18.5 -128.7 18.5 25.8"/><polygon points="10.5 25.8 13.5 25.8 13.5 -128.7 10.5 -128.7 10.5 25.8"/><polygon points="2.5 25.8 5.5 25.8 5.5 -128.7 2.5 -128.7 2.5 25.8"/></g></g></g></pattern><pattern id="n" x="0" y="0" width="71" height="71" patternTransform="translate(-20470.39 -3986.8) scale(.1)" patternUnits="userSpaceOnUse" viewBox="0 0 71 71"><g><rect class="av" width="71" height="71"/><g><polygon class="av" points="0 0 71 0 71 71 0 71 0 0"/><g><polygon class="av" points="0 0 71 0 71 71 0 71 0 0"/><path class="ax" d="M41.8,35.5c0,3.5-2.8,6.3-6.3,6.3s-6.3-2.8-6.3-6.3,2.8-6.3,6.3-6.3,6.3,2.8,6.3,6.3Z"/></g></g></g></pattern></defs><g id="a"><g id="b"><g><path class="ad" d="M105.15,544.47c-40.5-2.8-75.8-20.3-87.3-30.5C6.35,503.67,.35,482.37,.35,482.37c-.4,15-.4,26.3-.4,26.3,0,0,4.5,53.4,36.2,74.9,31.7,21.5,56.7,14,56.7,14,0,0,33.1-8.2,57.8-41.9,4.5-6.2,9.3-14.5,14.1-23.8-.1,0-19.2,15.3-59.6,12.6Z"/><path class="af" d="M105.15,544.47c-40.5-2.8-75.8-20.3-87.3-30.5C6.35,503.67,.35,482.37,.35,482.37c-.4,15-.4,26.3-.4,26.3,0,0,4.5,53.4,36.2,74.9,31.7,21.5,56.7,14,56.7,14,0,0,33.1-8.2,57.8-41.9,4.5-6.2,9.3-14.5,14.1-23.8-.1,0-19.2,15.3-59.6,12.6Z"/><path class="ae" d="M89.95,592.47c-12.5,1.8-31.3-2-45.1-7.7-13.6-5.7-24-16.4-24-16.4,4.2,5.8,9.3,11.1,15.3,15.2,31.7,21.5,56.7,14,56.7,14,0,0,11.7-2.9,26.3-12.3,0,0-14.6,5.2-29.2,7.2Z"/></g><g><path class="ad" d="M700.75,544.47c40.5-2.8,75.8-20.3,87.3-30.5s17.5-31.5,17.5-31.5c.4,15,.4,26.3,.4,26.3,0,0-4.5,53.4-36.2,74.9s-56.7,14-56.7,14c0,0-33.1-8.2-57.8-41.9-4.5-6.2-9.3-14.5-14.1-23.8,.1-.1,19.2,15.2,59.6,12.5Z"/><path class="ac" d="M700.75,544.47c40.5-2.8,75.8-20.3,87.3-30.5s17.5-31.5,17.5-31.5c.4,15,.4,26.3,.4,26.3,0,0-4.5,53.4-36.2,74.9s-56.7,14-56.7,14c0,0-33.1-8.2-57.8-41.9-4.5-6.2-9.3-14.5-14.1-23.8,.1-.1,19.2,15.2,59.6,12.5Z"/><path class="ae" d="M715.95,592.47c12.5,1.8,31.3-2,45.1-7.7,13.6-5.7,24-16.4,24-16.4-4.2,5.8-9.3,11.1-15.3,15.2-31.7,21.5-56.7,14-56.7,14,0,0-11.7-2.9-26.3-12.3,0,0,14.6,5.2,29.2,7.2Z"/></g><g class="ak"><path class="ab" d="M36.55,275.97c9.4-27.7,13.1-53,17-64.9,12-35.7,33-65.7,33-65.7,0,0,9.5-13.1,10.1-16.3,.6-3.3,4.7-8.6,4.7-8.6,0,0,17.4-5.7,62.3-5.7s53.7,5,53.7,5c0,0,2.4,2.9,5.9,4.8,3.5,1.8,11.7,1.7,11.7,1.7h33.4s.6-.1,.9,.3c.4,.4,.6,2,.6,2h266.2s.3-1.7,.6-2c.4-.4,.9-.3,.9-.3h33.4s8.2,.2,11.7-1.7c3.5-1.8,5.9-4.8,5.9-4.8,0,0,8.8-5,53.7-5s62.3,5.7,62.3,5.7c0,0,4.1,5.3,4.7,8.6,.6,3.3,10.1,16.3,10.1,16.3,0,0,21,30,33,65.7,4,11.9,7.7,37.2,17,64.9,14.3,42.1,29.1,129.1,32,144.6,3.9,20.9,4.6,77.3,4.7,88.3v-.1s-.3-66.9-4.7-90.1c-2.9-15.5-17.7-102.5-32-144.6-9.4-27.7-13.1-53-17-64.9-12-35.7-33-65.7-33-65.7,0,0-9.5-13.1-10.1-16.3-.6-3.3-4.7-8.6-4.7-8.6,0,0-17.4-5.7-62.3-5.7s-53.7,5-53.7,5c0,0-2.4,2.9-5.9,4.8-3.5,1.8-11.7,1.7-11.7,1.7h-33.4s-.6-.1-.9,.3c-.4,.4-.6,2-.6,2H269.85s-.3-1.7-.6-2c-.4-.4-.9-.3-.9-.3h-33.4s-8.2,.2-11.7-1.7c-3.5-1.8-5.9-4.8-5.9-4.8,0,0-8.8-5-53.7-5s-62.3,5.7-62.3,5.7c0,0-4.1,5.3-4.7,8.6-.6,3.3-10.1,16.3-10.1,16.3,0,0-21,30-33,65.7-4,11.9-7.7,37.2-17,64.9-14.3,42.1-29.1,129.1-32,144.6C.25,441.77-.05,508.77-.05,508.77v.1c.1-10.9,.7-67.4,4.7-88.3,2.9-15.4,17.6-102.5,31.9-144.6Z"/></g></g><g id="e"><g id="f"><g><path class="au" d="M351.15,359.97c0-29.1-16.32-54.44-40.28-67.37,21.97,12.58,36.78,36.24,36.78,63.37,0,40.32-32.68,73-73,73s-73-32.68-73-73c0-27.13,14.81-50.79,36.78-63.37-23.97,12.93-40.28,38.27-40.28,67.37,0,.7,0,1.3,.1,2,0,.7-.1,1.3-.1,2,0,42.2,34.3,76.5,76.5,76.5s76.5-34.3,76.5-76.5c0-.7,0-1.3-.1-2,0-.7,.1-1.4,.1-2Z"/><path class="bd" d="M201.65,355.97c0,40.32,32.68,73,73,73s73-32.68,73-73c0-27.13-14.81-50.79-36.78-63.37-10.68-6.11-23.03-9.63-36.22-9.63s-25.54,3.51-36.22,9.63c-21.97,12.58-36.78,36.24-36.78,63.37Z"/></g><circle cx="274.65" cy="355.97" r="51.5"/></g><g id="g"><g><path class="au" d="M607.75,359.97c0-29.1-16.32-54.44-40.28-67.37,21.97,12.58,36.78,36.24,36.78,63.37,0,40.32-32.68,73-73,73s-73-32.68-73-73c0-27.13,14.81-50.79,36.78-63.37-23.97,12.93-40.28,38.27-40.28,67.37,0,.7,0,1.3,.1,2,0,.7-.1,1.3-.1,2,0,42.2,34.3,76.5,76.5,76.5s76.5-34.3,76.5-76.5c0-.7,0-1.3-.1-2,.1-.7,.1-1.4,.1-2Z"/><path class="bd" d="M458.25,355.97c0,40.32,32.68,73,73,73s73-32.68,73-73c0-27.13-14.81-50.79-36.78-63.37-10.68-6.11-23.03-9.63-36.22-9.63s-25.54,3.51-36.22,9.63c-21.97,12.58-36.78,36.24-36.78,63.37Z"/></g><circle cx="531.25" cy="355.97" r="51.5"/></g><circle id="h" class="aq" cx="652.25" cy="244.77" r="94.3"/><g id="i"><circle class="aq" cx="153.65" cy="244.77" r="94.3"/><path class="ap" d="M230.35,254.07l9.5-8.9c.5-.5,.5-1.2,0-1.7l-9.5-8.9c-.7-.7-1.9-.2-1.9,.8v17.8c-.1,1,1.1,1.5,1.9,.9Z"/><path class="ap" d="M144.95,169.77h17.8c1,0,1.5-1.2,.8-1.9l-8.9-9.5c-.5-.5-1.2-.5-1.7,0l-8.9,9.5c-.6,.7-.1,1.9,.9,1.9Z"/><path class="ap" d="M77.45,234.57l-9.5,8.9c-.5,.5-.5,1.2,0,1.7l9.5,8.9c.7,.7,1.9,.2,1.9-.8v-17.8c0-1.1-1.2-1.6-1.9-.9Z"/><path class="ap" d="M162.75,318.77h-17.8c-1,0-1.5,1.2-.8,1.9l8.9,9.5c.5,.5,1.2,.5,1.7,0l8.9-9.5c.6-.7,.1-1.9-.9-1.9Z"/></g></g><g id="j"><g><g><path class="aj" d="M141.15,247.17c1.4-2,1.2-2.9,1.2-2.9,0,0,.2-.9-1.2-2.9s-15-13.6-15.7-14-28.5-2.2-31.4,1.3-2.6,15.6-2.6,15.6c0,0-.3,12.1,2.6,15.6,2.9,3.5,30.7,1.7,31.4,1.3s14.3-12,15.7-14Z"/><path class="ag" d="M141.15,247.17c1.4-2,1.2-2.9,1.2-2.9,0,0,.2-.9-1.2-2.9-.9-1.3-6.9-6.6-11.2-10.3-2.1,3.9-3.4,8.4-3.4,13.2s1.2,9.3,3.4,13.2c4.3-3.7,10.3-9,11.2-10.3Z"/></g><g><path class="aj" d="M150.95,231.57c2,1.4,2.9,1.2,2.9,1.2,0,0,.9,.2,2.9-1.2s13.6-15,14-15.7,2.2-28.5-1.3-31.4-15.6-2.6-15.6-2.6c0,0-12.1-.3-15.6,2.6s-1.7,30.7-1.3,31.4c.5,.7,12,14.3,14,15.7Z"/><path class="ag" d="M150.95,231.57c2,1.4,2.9,1.2,2.9,1.2,0,0,.9,.2,2.9-1.2,1.3-.9,6.6-6.9,10.3-11.2-3.9-2.1-8.4-3.4-13.2-3.4s-9.3,1.2-13.2,3.4c3.8,4.3,9,10.3,10.3,11.2Z"/></g><g><path class="aj" d="M213.65,228.77c-2.9-3.5-30.7-1.7-31.4-1.3-.7,.4-14.3,12-15.7,14s-1.2,2.9-1.2,2.9c0,0-.2,.9,1.2,2.9s15,13.6,15.7,14,28.5,2.2,31.4-1.3,2.6-15.6,2.6-15.6c0,0,.3-12.1-2.6-15.6Z"/><path class="ag" d="M177.85,231.17c-4.3,3.7-10.3,9-11.2,10.3-1.4,2-1.2,2.9-1.2,2.9,0,0-.2,.9,1.2,2.9,.9,1.3,6.9,6.6,11.2,10.3,2.1-3.9,3.4-8.4,3.4-13.2s-1.3-9.3-3.4-13.2Z"/></g><g><path class="aj" d="M156.75,257.07c-2-1.4-2.9-1.2-2.9-1.2,0,0-.9-.2-2.9,1.2s-13.6,15-14,15.7-2.2,28.5,1.3,31.4,15.6,2.6,15.6,2.6c0,0,12.1,.3,15.6-2.6s1.7-30.7,1.3-31.4c-.4-.8-12-14.3-14-15.7Z"/><path class="ag" d="M156.75,257.07c-2-1.4-2.9-1.2-2.9-1.2,0,0-.9-.2-2.9,1.2-1.3,.9-6.6,6.9-10.3,11.2,3.9,2.1,8.4,3.4,13.2,3.4s9.3-1.2,13.2-3.4c-3.7-4.3-9-10.3-10.3-11.2Z"/></g></g><g><g><g><path class="ba" d="M709.85,270.97c-14.5,0-26.3-11.8-26.3-26.3s11.8-26.3,26.3-26.3,26.3,11.8,26.3,26.3-11.8,26.3-26.3,26.3Z"/><path class="aa" d="M709.85,219.47c13.9,0,25.3,11.3,25.3,25.3s-11.3,25.2-25.3,25.2-25.3-11.3-25.3-25.3c0-14,11.4-25.2,25.3-25.2m0-2c-15,0-27.3,12.2-27.3,27.3s12.2,27.3,27.3,27.3,27.3-12.2,27.3-27.3-12.3-27.3-27.3-27.3h0Z"/></g><path class="ar" d="M709.85,225.87c-10.4,0-18.9,8.5-18.9,18.9s8.5,18.9,18.9,18.9,18.9-8.5,18.9-18.9c0-10.4-8.4-18.9-18.9-18.9Zm0,34.9c-8.9,0-16-7.2-16-16s7.2-16,16-16,16,7.2,16,16c.1,8.9-7.1,16-16,16Z"/></g><g><g><path class="ba" d="M652.25,328.57c-14.5,0-26.3-11.8-26.3-26.3s11.8-26.3,26.3-26.3,26.3,11.8,26.3,26.3-11.8,26.3-26.3,26.3Z"/><path class="aa" d="M652.25,277.07c13.9,0,25.3,11.3,25.3,25.3s-11.3,25.3-25.3,25.3-25.3-11.3-25.3-25.3,11.4-25.3,25.3-25.3m0-2c-15,0-27.3,12.2-27.3,27.3s12.2,27.3,27.3,27.3,27.3-12.2,27.3-27.3-12.2-27.3-27.3-27.3h0Z"/></g><polygon class="al" points="666.65 289.97 664.65 287.97 652.25 300.37 639.95 287.97 637.95 289.97 650.25 302.37 637.95 314.67 639.95 316.67 652.25 304.37 664.65 316.67 666.65 314.67 654.25 302.37 666.65 289.97"/></g><g><g><path class="ba" d="M594.75,270.97c-14.5,0-26.3-11.8-26.3-26.3s11.8-26.3,26.3-26.3,26.3,11.8,26.3,26.3-11.9,26.3-26.3,26.3Z"/><path class="aa" d="M594.65,219.47c13.9,0,25.3,11.3,25.3,25.3s-11.3,25.2-25.3,25.2-25.3-11.3-25.3-25.3,11.4-25.2,25.3-25.2m0-2c-15,0-27.3,12.2-27.3,27.3s12.2,27.3,27.3,27.3,27.3-12.2,27.3-27.3-12.2-27.3-27.3-27.3h0Z"/></g><path class="ao" d="M606.25,230.37h-25.8v28.6h28.6v-28.6h-2.8Zm0,25.9h-23v-23h23v23Z"/></g><g><g><path class="ba" d="M652.25,213.47c-14.5,0-26.3-11.8-26.3-26.3s11.8-26.3,26.3-26.3,26.3,11.8,26.3,26.3-11.8,26.3-26.3,26.3Z"/><path class="aa" d="M652.25,161.97c13.9,0,25.3,11.3,25.3,25.3s-11.3,25.3-25.3,25.3-25.3-11.3-25.3-25.3,11.4-25.3,25.3-25.3m0-2c-15,0-27.3,12.2-27.3,27.3s12.2,27.3,27.3,27.3,27.3-12.2,27.3-27.3-12.2-27.3-27.3-27.3h0Z"/></g><path class="am" d="M668.25,195.17l-16-27.6-16,27.6-1.6,2.8h35.2l-1.6-2.8Zm-16,0h-12.7l12.7-21.9,12.7,21.9h-12.7Z"/></g></g></g><g id="k"><g><path class="as" d="M240.45,143.47c6.9,0,12.5,5.6,12.5,12.5v18.3c0,6.9-5.6,12.5-12.5,12.5s-12.5-5.6-12.5-12.5v-18.3c0-6.9,5.6-12.5,12.5-12.5m0-1.7c-7.8,0-14.2,6.4-14.2,14.2v18.3c0,7.8,6.4,14.2,14.2,14.2s14.2-6.4,14.2-14.2v-18.3c0-7.9-6.4-14.2-14.2-14.2h0Z"/><path class="aj" d="M240.45,143.47c-6.9,0-12.5,5.6-12.5,12.5v18.3c0,6.9,5.6,12.5,12.5,12.5s12.5-5.6,12.5-12.5v-18.3c0-6.9-5.6-12.5-12.5-12.5Z"/></g><g><path class="as" d="M565.45,143.47c6.9,0,12.5,5.6,12.5,12.5v18.3c0,6.9-5.6,12.5-12.5,12.5h0c-6.9,0-12.5-5.6-12.5-12.5v-18.3c0-6.9,5.6-12.5,12.5-12.5h0m0-1.7c-7.8,0-14.2,6.4-14.2,14.2v18.3c0,7.8,6.4,14.2,14.2,14.2s14.2-6.4,14.2-14.2v-18.3c0-7.9-6.4-14.2-14.2-14.2h0Z"/><path class="aj" d="M565.45,143.47c-6.9,0-12.5,5.6-12.5,12.5v18.3c0,6.9,5.6,12.5,12.5,12.5s12.5-5.6,12.5-12.5v-18.3c0-6.9-5.6-12.5-12.5-12.5Z"/></g><g><g><path class="aw" d="M547.55,134.57c0,2.1-1.5,3.8-4.1,3.8s-4.1-1.7-4.1-3.8,1.5-3.8,4.1-3.8,4.1,1.7,4.1,3.8Zm-6.7,0c0,1.4,.8,2.7,2.6,2.7s2.6-1.4,2.6-2.7c0-1.4-.8-2.7-2.6-2.7s-2.6,1.3-2.6,2.7Z"/><path class="aw" d="M548.85,130.97h3.8c2.4,0,2.9,1.3,2.9,2.2s-.5,2.2-2.9,2.2h-2.3v2.8h-1.5v-7.2Zm1.5,3.4h2.2c.7,0,1.5-.3,1.5-1.2s-.7-1.2-1.5-1.2h-2.2v2.4Z"/><path class="aw" d="M556.05,130.97h6.9v1.1h-2.7v6.1h-1.5v-6.2h-2.7v-1Z"/><path class="aw" d="M564.05,130.97h1.5v7.2h-1.5v-7.2Z"/><path class="aw" d="M575.05,134.57c0,2.1-1.5,3.8-4.1,3.8s-4.1-1.7-4.1-3.8,1.5-3.8,4.1-3.8,4.1,1.7,4.1,3.8Zm-6.7,0c0,1.4,.8,2.7,2.6,2.7s2.6-1.4,2.6-2.7c0-1.4-.8-2.7-2.6-2.7s-2.6,1.3-2.6,2.7Z"/><path class="aw" d="M576.45,130.97h1.6l3.9,5.3h0v-5.3h1.4v7.2h-1.6l-3.9-5.3h0v5.3h-1.4v-7.2Z"/><path class="aw" d="M586.15,135.77c0,1.1,1,1.5,2.2,1.5,1.3,0,1.8-.6,1.8-1.1,0-.6-.4-.8-.7-.9-.6-.2-1.4-.3-2.6-.6-1.5-.3-1.9-1.1-1.9-1.8,0-1.5,1.6-2.1,3.1-2.1,1.8,0,3.3,.8,3.3,2.3h-1.5c-.1-.9-.8-1.3-1.8-1.3-.7,0-1.6,.2-1.6,.9,0,.5,.4,.8,1,.9,.1,0,2,.4,2.5,.6,1.1,.3,1.7,1.1,1.7,1.8,0,1.6-1.7,2.3-3.4,2.3-2,0-3.5-.8-3.6-2.6h1.5v.1Z"/></g><g><path class="aw" d="M222.15,135.77c0,1.1,1,1.5,2.2,1.5,1.3,0,1.8-.6,1.8-1.1,0-.6-.4-.8-.7-.9-.6-.2-1.4-.3-2.6-.6-1.5-.3-1.9-1.1-1.9-1.8,0-1.5,1.6-2.1,3.1-2.1,1.8,0,3.3,.8,3.3,2.3h-1.5c-.1-.9-.8-1.3-1.8-1.3-.7,0-1.6,.2-1.6,.9,0,.5,.4,.8,1,.9,.1,0,2,.4,2.5,.6,1.1,.3,1.7,1.1,1.7,1.8,0,1.6-1.7,2.3-3.4,2.3-2,0-3.5-.8-3.6-2.6h1.5v.1Z"/><path class="aw" d="M228.85,130.97h1.5v2.9h3.9v-2.9h1.5v7.2h-1.5v-3.2h-3.9v3.2h-1.5v-7.2Z"/><path class="aw" d="M239.85,130.97h1.6l3.3,7.2h-1.6l-.8-1.9h-3.4l-.8,1.9h-1.5l3.2-7.2Zm-.5,4.3h2.6l-1.3-3.1h0l-1.3,3.1Z"/><path class="aw" d="M245.55,130.97h4.1c1.9,0,2.8,.7,2.8,1.9,0,1.4-1.1,1.7-1.4,1.8h0c.5,.1,1.3,.4,1.3,1.5,0,.8,.1,1.6,.5,1.9h-1.6c-.2-.3-.2-.7-.2-1.1,0-1.3-.3-1.9-1.7-1.9h-2.2v3h-1.5v-7.1h-.1Zm1.5,3.2h2.5c1,0,1.5-.4,1.5-1.1,0-.9-.7-1.1-1.5-1.1h-2.4v2.2h-.1Z"/><path class="aw" d="M254.05,130.97h6.2v1.1h-4.7v1.9h4.3v1h-4.3v2.1h4.7v1.1h-6.2v-7.2h0Z"/></g></g></g><g id="l"><path class="an" d="M436.55,420.97h-67.9c-2.8,0-4.6,.6-4.6-2.2h0c0-2.8,2.3-5,5-5h67.9c2.8,0,5,2.3,5,5h0c.1,2.7-2.6,2.2-5.4,2.2Z"/><path d="M408.25,418.77h-36.5c-.5,0-.9-.4-.9-.9h0c0-1.1,.9-2,2-2h34.2c1.1,0,2,.9,2,2h0c.1,.5-.3,.9-.8,.9Z"/><path d="M430.45,419.57h-4.2c-.9,0-1.7-.8-1.7-1.7h0c0-1.6,1.3-2.8,2.8-2.8h1.9c1.6,0,2.8,1.3,2.8,2.8h0c.1,1-.6,1.7-1.6,1.7Z"/></g><g id="m"><g><path class="ai" d="M534.75,127.97c-.38-3.08-3.08-5.41-6.13-5.58,1.01,.09,1.73,.94,1.73,1.88l.1,6.1v123.1c0,8.6-7,15.6-15.6,15.6h-223.8c-8.6,0-15.6-7-15.6-15.6V124.27c0-1.01,.76-1.76,1.65-1.88-2.98,.24-5.58,2.46-5.95,5.58-.1,.7-.1,1.4-.1,2.1v127.4c0,8.9,7.2,16.1,16.1,16.1h231.6c8.9,0,16.1-7.2,16.1-16.1v-127.4c.1-.7,0-1.4-.1-2.1Z"/><path class="ap" d="M275.45,124.27V253.47c0,8.6,7,15.6,15.6,15.6h223.8c8.6,0,15.6-7,15.6-15.6v-123.1l-.1-6.1c0-.95-.72-1.8-1.73-1.88-.06,0-.11-.02-.17-.02h-251.1c-.08,0-.16,.01-.25,.02-.9,.12-1.65,.87-1.65,1.88Z"/></g><g class="b`"><path class="ay" d="M275.5,253.47c0,8.6,7,15.6,15.6,15.6h223.8c8.6,0,15.6-7,15.6-15.6v-106.5h-255v106.5Z"/></g></g><g id="o"><circle class="bb" cx="402.95" cy="361.97" r="20.2"/><g><path class="bc" d="M404.05,368.57v-12.8c0-.5,.1-.8,.3-1,.1-.2,.4-.3,.7-.2,.6,.2,.9,.7,.9,1.7v6.9c.8,.4,1.5,.5,2.1,.5s1.2-.2,1.6-.5c1-.7,1.5-1.9,1.5-3.7,0-1.9-.4-3.4-1.2-4.3-.8-1-2.1-1.9-4.1-2.6-1.3-.4-2.5-.8-3.6-1.1-1.1-.3-2-.5-2.9-.7v12.2h0v2.7h0v1.7h0v2.5h0v1.5l4.7,1.5v-3.6h0v-.7Z"/><path class="bc" d="M398.95,367.57l-1.7,.6-.9,.4-1.6,.3-1.5-.2c-.3-.2-.4-.4-.2-.6,.1-.1,.2-.1,.3-.2,.1-.1,.3-.1,.4-.2l1.1-.4,4.1-1.5v-2.7l-1.7,.5-5.5,2-1,.4c-1.5,.6-2.2,1.2-2.2,1.8,.1,.8,1,1.5,2.7,1.9,.7,.2,1.4,.3,2.1,.4s1.4,.1,2.2,.1c1,0,2.1-.1,3.3-.3v-2.3h.1Z"/><path class="bc" d="M414.75,365.27c-.9-.3-1.7-.5-2.5-.6s-1.7-.2-2.5-.1c-.9,0-1.9,.2-2.8,.3-.8,.2-1.7,.4-2.6,.8v2.8l3.9-1.4,1.6-.5,1.1-.3h1.4c.3,.1,.6,.2,.7,.4,0,.2-.2,.4-.8,.6l-1.4,.5-6.5,2.4v2.7l3.5-1.3,6.4-2.3,.7-.4c1.5-.5,2.2-1.2,2.2-1.9,0-.6-.8-1.2-2.4-1.7Z"/></g></g><g id="p"><g><path class="aj" d="M642.25,112.77c-22.9,0-36.4,1.3-44.1,2.6h0v-11s9.7-2.9,47.5-2.9,51.4,8.4,51.4,8.4v6.9h0c-8.9-1.6-26.3-3.9-54.8-4Zm54.9-2.9c0-.8-.4-1.5-1.1-1.9-4.5-2.9-23.4-13.6-51.5-13.6s-41.1,5.9-45.1,8c-.8,.4-1.2,1.2-1.2,2,0,0,9.8-2.9,47.5-2.9s51.4,8.4,51.4,8.4Z"/><path class="at" d="M697.15,109.87c0-.8-.4-1.5-1.1-1.9-4.5-2.9-23.4-13.6-51.5-13.6s-41.1,5.9-45.1,8c-.8,.4-1.2,1.2-1.2,2,0,0,9.8-2.9,47.5-2.9s51.4,8.4,51.4,8.4Z"/></g><g><path class="aj" d="M108.85,116.77h0v-6.9s13.7-8.4,51.4-8.4,47.5,2.9,47.5,2.9v11h0c-7.7-1.3-21.2-2.6-44.1-2.6-28.5,.1-45.9,2.4-54.8,4Zm51.3-15.3c37.7,0,47.5,2.9,47.5,2.9,0-.8-.4-1.6-1.2-2-4-2.1-18.2-8-45.1-8s-47,10.7-51.5,13.6c-.7,.4-1.1,1.1-1.1,1.9,0,0,13.7-8.4,51.4-8.4Z"/><path class="at" d="M108.75,109.87c0-.8,.4-1.5,1.1-1.9,4.5-2.9,23.4-13.6,51.5-13.6s41.1,5.9,45.1,8c.8,.4,1.2,1.2,1.2,2,0,0-9.8-2.9-47.5-2.9s-51.4,8.4-51.4,8.4Z"/></g></g><g id="q"><g><g><path class="aj" d="M697.15,90.77s-32.7-3.2-50.6-3.2-48.4,2.4-48.4,2.4c0,0,3.1-44.7,4.8-52,1.6-7.3,7.7-21.3,16.9-27.9C629.05,3.47,631.75-.03,642.55-.03s25.4,6.4,34.6,21.4c9.3,15,20,69.4,20,69.4Z"/><path class="at" d="M598.65,83.17s26.1-4.4,49-4.4,47.9,4.4,47.9,4.4c1,4.7,1.6,7.6,1.6,7.6,0,0-32.7-3.2-50.6-3.2s-48.4,2.4-48.4,2.4c0,0,.2-2.7,.5-6.8Z"/></g><g class="ah"><path class="ab" d="M648.65,65.67c-2.1,1.7-3.2,2.6-3.2,2.6-1.2,1.2-1.9,2.7-2,4.5h9.8v-2.6h-6.3c.3-.5,1-1.2,2.1-1.9,1.4-.9,2.3-1.6,2.7-2.1,.9-1,1.3-2.1,1.3-3.3,0-1.4-.5-2.5-1.4-3.3s-2.1-1.2-3.5-1.2c-3.1,0-4.7,1.7-4.7,5h2.7c0-1.8,.7-2.7,2.1-2.7,1.3,0,2,.7,2,2.1,.2,1.1-.4,2-1.6,2.9Z"/><path class="ab" d="M631.05,67.17h3c1.5,0,2.3,.6,2.4,1.9,.1,1.2,.2,2.5,.3,3.8h3.3v-.4c-.5-.2-.7-.7-.7-1.5,0-.2,0-.4,.1-.8v-.7c0-1.7-.6-2.9-1.8-3.5,1.4-.5,2.2-1.6,2.2-3.4,0-1.3-.4-2.3-1.3-3-.8-.7-1.9-1-3.2-1h-7.3v14.3h3v-5.7Zm0-6.2h3.7c1.4,0,2.1,.6,2.1,1.9s-.8,1.9-2.3,1.9h-3.5v-3.8Z"/></g></g><g><g><path class="aj" d="M108.75,90.77s32.7-3.2,50.6-3.2,48.3,2.4,48.3,2.4c0,0-3.1-44.7-4.8-52-1.6-7.3-7.7-21.3-16.9-27.9C176.85,3.37,174.15-.03,163.35-.03s-25.4,6.4-34.6,21.4c-9.2,15-20,69.4-20,69.4Z"/><path class="at" d="M207.25,83.17s-26.1-4.4-49-4.4-47.9,4.4-47.9,4.4c-1,4.7-1.6,7.6-1.6,7.6,0,0,32.7-3.2,50.6-3.2s48.3,2.4,48.3,2.4c0,0-.1-2.7-.4-6.8Z"/></g><g class="ah"><path class="ab" d="M173.25,65.67c-2.1,1.7-3.2,2.6-3.2,2.6-1.2,1.2-1.9,2.7-2,4.5h9.8v-2.6h-6.2c.3-.5,1-1.2,2.1-1.9,1.4-.9,2.3-1.6,2.7-2.1,.9-1,1.3-2.1,1.3-3.3,0-1.4-.5-2.5-1.4-3.3s-2.1-1.2-3.5-1.2c-3.1,0-4.7,1.7-4.7,5h2.7c0-1.8,.7-2.7,2.1-2.7,1.3,0,2,.7,2,2.1,.1,1.1-.5,2-1.7,2.9Z"/><polygon class="ab" points="164.75 70.17 157.75 70.17 157.75 58.47 154.65 58.47 154.65 72.77 164.75 72.77 164.75 70.17"/></g></g></g></g><g id="r"/><g id="s"/><g id="t"/><g id="u"/><g id="v"/><g id="w"/><g id="x"/><g id="y"/><g id="a`"/></svg>