<?xml version="1.0" encoding="UTF-8"?><svg xmlns="http://www.w3.org/2000/svg" width="806" height="599.9" viewBox="0 0 806 599.9"><defs><style>.k{fill:#ed1c24;opacity:.5;}.l{fill:#f2f2f2;}</style></defs><g id="a"/><g id="b"><g><path class="k" d="M805.75,509.22h0v-2.4c-.1-12.4-.8-67.1-4.6-87.6-2.9-15.5-17.7-102.5-32-144.6-9.4-27.7-13.1-53-17-64.9-12-35.7-33-65.7-33-65.7,0,0-9.5-13.1-10.1-16.3-.6-3.3-4.7-8.6-4.7-8.6,0,0-2.3-.8-7.4-1.7h0v-6.9c0-.8-.4-1.5-1.1-1.9-4.5-2.9-23.4-13.6-51.5-13.6s-41.1,5.9-45.1,8c-.8,.4-1.2,1.2-1.2,2v11h0c-7.4,1.2-9.6,2.4-9.6,2.4,0,0-2.4,2.9-5.9,4.8-3.5,1.8-11.7,1.7-11.7,1.7h-33.4s-.6-.1-.9,.3c-.4,.4-.6,2-.6,2h-1.6c-.9-2.3-3.1-3.9-5.7-4.1h-251.7c-2.5,.2-4.8,1.8-5.7,4.1h-1.6s-.3-1.7-.6-2c-.4-.4-.9-.3-.9-.3h-33.4s-8.2,.2-11.7-1.7c-3.5-1.8-5.9-4.8-5.9-4.8,0,0-2.1-1.2-9.6-2.4h0v-11c0-.9-.5-1.6-1.2-2-4-2-18.2-8-45.1-8s-47,10.7-51.5,13.6c-.7,.4-1.1,1.1-1.1,1.9v6.9h0c-5.1,1-7.4,1.7-7.4,1.7,0,0-4.1,5.3-4.7,8.6-.6,3.3-10.1,16.3-10.1,16.3,0,0-21,30-33,65.7-4,11.9-7.7,37.2-17,64.9-14.3,42.1-29.1,129.1-32,144.6C.65,439.72-.05,494.42-.15,506.82v2.4H-.15v.2H-.15c.2,2.5,3.6,35.7,20.8,59.5h0c.5,.7,1.1,1.4,1.6,2.1,0,0,0,.1,.1,.1,.5,.7,1.1,1.4,1.6,2h0c.6,.7,1.1,1.3,1.7,1.9l.2,.2c.6,.6,1.1,1.2,1.7,1.8l.1,.1c.6,.6,1.2,1.2,1.8,1.7l.3,.3c.6,.5,1.2,1,1.8,1.6l.1,.1c.6,.5,1.3,1,1.9,1.5,.2,.1,.3,.2,.5,.3,.7,.5,1.3,1,2,1.4,31.7,21.5,56.7,14,56.7,14h.1q.1,0,.2-.1h.1c.1,0,.3-.1,.4-.1h0c.2,0,.3-.1,.5-.2h.1c.2-.1,.4-.1,.7-.2q.1,0,.2-.1c.3-.1,.5-.2,.8-.3h.1l.9-.3q.1,0,.2-.1c.3-.1,.7-.2,1.1-.4,.1,0,.2-.1,.3-.1,.4-.1,.8-.3,1.2-.5,.1,0,.1-.1,.2-.1,.4-.2,.8-.3,1.2-.5,.1,0,.2-.1,.2-.1,.4-.2,.9-.4,1.4-.6,.1,0,.2-.1,.3-.1,.5-.2,1-.4,1.5-.7,.1,0,.2-.1,.3-.1,.5-.2,1-.4,1.5-.7,.1,0,.2-.1,.2-.1,.5-.3,1.1-.5,1.7-.8,.1-.1,.3-.1,.4-.2,.6-.3,1.1-.6,1.7-.9,.1-.1,.2-.1,.3-.2,.6-.3,1.1-.6,1.7-.9,.1,0,.1-.1,.2-.1,.6-.3,1.2-.7,1.9-1.1,.1-.1,.3-.2,.4-.2,.6-.4,1.3-.7,1.9-1.1,.1-.1,.3-.2,.4-.2,.7-.4,1.3-.8,2-1.2,0,0,.1,0,.1-.1h0c10-6.4,21.4-15.9,31.5-29.6,.5-.7,1-1.4,1.5-2.2,.1-.2,.3-.4,.4-.6,.5-.7,1-1.4,1.4-2.2,0-.1,.1-.1,.1-.2,.5-.8,1.1-1.7,1.6-2.5,.1-.2,.2-.3,.3-.5,.5-.8,1-1.7,1.5-2.5l.1-.1c.6-1,1.1-1.9,1.7-2.9,.1-.1,.1-.2,.2-.3,.5-1,1.1-2,1.7-3h0c.6-1.1,1.2-2.2,1.8-3.3v-.1c21.9-41.6,44.3-108.8,44.3-108.8,0,0,2.2-3,5.7-5.3s6.3-2.6,6.3-2.6h1.9c13.8,13.5,32.7,21.8,53.5,21.8s39.6-8.3,53.4-21.7h36c0,2.8,1.8,2.2,4.6,2.2h67.9c2.8,0,5.5,.6,5.5-2.2h35.9c13.8,13.4,32.6,21.7,53.4,21.7s39.7-8.3,53.5-21.8h1.9s2.8,.3,6.3,2.6,5.7,5.3,5.7,5.3c0,0,22.5,67.2,44.3,108.8v.1c.6,1.1,1.2,2.2,1.8,3.3h0c.6,1,1.1,2,1.7,3,.1,.1,.1,.2,.2,.3,.6,1,1.1,2,1.7,2.9l.1,.1c.5,.9,1,1.7,1.5,2.5,.1,.2,.2,.3,.3,.5,.5,.9,1.1,1.7,1.6,2.5,0,.1,.1,.1,.1,.2,.5,.7,1,1.5,1.4,2.2,.1,.2,.3,.4,.4,.6,.5,.7,1,1.5,1.5,2.2,10,13.7,21.5,23.2,31.5,29.6h0s.1,0,.1,.1c.7,.4,1.3,.8,2,1.2,.1,.1,.3,.2,.4,.2,.6,.4,1.3,.8,1.9,1.1,.1,.1,.3,.2,.4,.2,.6,.4,1.3,.7,1.9,1.1,.1,0,.1,.1,.2,.1,.6,.3,1.2,.6,1.7,.9,.1,.1,.2,.1,.3,.2,.6,.3,1.2,.6,1.7,.9,.1,.1,.3,.1,.4,.2,.6,.3,1.1,.5,1.7,.8,.1,0,.2,.1,.2,.1,.5,.2,1,.5,1.5,.7,.1,0,.2,.1,.3,.1,.5,.2,1,.4,1.5,.7,.1,0,.2,.1,.3,.1,.5,.2,.9,.4,1.4,.6,.1,0,.2,.1,.2,.1,.4,.2,.8,.3,1.2,.5,.1,0,.1,.1,.2,.1,.4,.2,.8,.3,1.2,.5,.1,0,.2,.1,.3,.1,.4,.1,.7,.3,1.1,.4q.1,0,.2,.1c.3,.1,.6,.2,.9,.3h.1c.3,.1,.6,.2,.8,.3q.1,0,.2,.1c.2,.1,.5,.1,.7,.2h.1c.2,.1,.4,.1,.5,.2h0c.2,0,.3,.1,.4,.1h.1c.1,0,.2,.1,.2,.1h.1s25,7.5,56.7-14c.7-.5,1.3-.9,2-1.4,.2-.1,.3-.2,.5-.3,.6-.5,1.3-1,1.9-1.5l.1-.1c.6-.5,1.2-1,1.8-1.6l.3-.3c.6-.6,1.2-1.1,1.8-1.7l.1-.1c.6-.6,1.1-1.2,1.7-1.8l.2-.2c.6-.6,1.1-1.3,1.7-1.9h0c.6-.7,1.1-1.3,1.6-2,0,0,0-.1,.1-.1,.5-.7,1.1-1.4,1.6-2.1h0c17.2-23.8,20.6-57,20.8-59.5h0v-.1s-.4,0-.4-.1Z"/><path class="k" d="M608.55,89.92c.5,0,1.1-.1,1.6-.1,4.4-.3,9.6-.6,15-.9,1.3-.1,2.7-.1,4-.2,2.7-.1,5.4-.2,8-.3,1.3,0,2.6-.1,3.8-.1s2.4,0,3.6-.1h1.7c17.9,0,50.6,3.2,50.6,3.2h0s0-.1-.1-.3v-.3h0c0-.1,0-.2-.1-.3v-.3c0-.2-.1-.5-.2-.8v-.1c0-.1-.1-.3-.1-.4v-.1c-2.3-11-11.4-53.8-19.4-66.8-9.1-15-23.7-21.4-34.6-21.4s-13.6,3.4-22.7,10.1c-9.1,6.7-15.3,20.6-16.9,27.9-1.2,5.5-3.3,32.4-4.3,45.2h0v2.8h0c0,.6-.1,1.1-.1,1.6v.5h0c-.1,1-.1,1.6-.1,1.8v.1s1.9-.1,5-.4c1.3-.1,3.2-.2,5.3-.3Z"/><path class="k" d="M207.55,90.62h0c0-.3-.1-.9-.1-1.9h0v-.5c0-.5-.1-1-.1-1.6h0v-2.7c-1-12.8-3.1-39.7-4.3-45.2-1.6-7.3-7.7-21.3-16.9-27.9-9.2-6.6-12.2-10.2-23-10.2s-25.4,6.4-34.6,21.4c-8,13-17.1,55.8-19.4,66.8v.1c0,.2-.1,.3-.1,.4v.1c-.1,.3-.1,.6-.2,.8v.3c0,.1,0,.2-.1,.3h0v.3c0,.1,0,.2-.1,.3h0s32.7-3.2,50.6-3.2,48.3,2.4,48.3,2.4Z"/></g><g><path class="l" d="M171.25,252.32c4.3-.7,9.8-1.1,15.7-1.1,10.1,0,17,2.1,22,6.2,5.2,4.2,8.4,10.6,8.4,19.8s-3.3,16.8-8.4,21.4c-5.4,4.9-13.9,7.4-24.4,7.4-5.8,0-10.1-.3-13.3-.7v-53h0Zm9.9,45.7c1.4,.2,3.4,.2,5.4,.2,12.8,.1,20.4-7,20.4-20.6,.1-11.9-6.8-18.7-19.1-18.7-3.1,0-5.4,.2-6.7,.6v38.5h0Z"/><path class="l" d="M236.25,255.72c0,3-2.2,5.3-5.6,5.3s-5.4-2.3-5.4-5.3,2.2-5.4,5.5-5.4,5.4,2.4,5.5,5.4Zm-10.5,49.8v-39h9.9v39h-9.9Z"/><path class="l" d="M245.75,296.52c2.2,1.4,6.5,2.8,10,2.8,4.3,0,6.2-1.8,6.2-4.3s-1.6-4-6.4-5.7c-7.6-2.6-10.8-6.8-10.7-11.4,0-6.9,5.7-12.2,14.7-12.2,4.3,0,8.1,1.1,10.3,2.3l-1.9,7c-1.7-1-4.8-2.2-8.2-2.2s-5.4,1.7-5.4,4.1,1.8,3.7,6.8,5.4c7,2.6,10.3,6.2,10.4,11.9,0,7-5.5,12.2-15.8,12.2-4.7,0-9-1.1-11.8-2.7l1.8-7.2Z"/><path class="l" d="M308.25,304.32c-2.1,1-6.2,2-11,2-12.2,0-20.1-7.8-20.1-19.8s8-20.8,21.7-20.8c3.6,0,7.3,.8,9.5,1.8l-1.8,7.4c-1.6-.7-3.9-1.5-7.4-1.5-7.5,0-12,5.5-11.9,12.6,0,8,5.2,12.6,11.9,12.6,3.4,0,5.8-.7,7.8-1.5l1.3,7.2Z"/><path class="l" d="M351.85,285.72c0,14.3-10.1,20.7-20,20.7-11,0-19.5-7.6-19.5-20.1s8.4-20.6,20.2-20.6,19.3,8.2,19.3,20Zm-29.4,.4c0,7.5,3.7,13.2,9.7,13.2,5.6,0,9.5-5.5,9.5-13.4,0-6.1-2.7-13-9.4-13-7,0-9.8,6.7-9.8,13.2Z"/><path class="l" d="M359.95,278.22c0-4.5-.1-8.2-.3-11.6h8.6l.5,5.8h.2c1.7-3,5.9-6.7,12.4-6.7s13.8,4.4,13.8,16.7v23.1h-9.8v-22c0-5.6-2.1-9.8-7.4-9.8-3.9,0-6.6,2.8-7.7,5.8-.3,.9-.4,2.1-.4,3.2v22.9h-9.9v-27.4h0Z"/><path class="l" d="M405.65,278.22c0-4.5-.1-8.2-.3-11.6h8.6l.5,5.8h.2c1.7-3,5.9-6.7,12.4-6.7s13.8,4.4,13.8,16.7v23.1h-9.8v-22c0-5.6-2.1-9.8-7.4-9.8-3.9,0-6.6,2.8-7.7,5.8-.3,.9-.4,2.1-.4,3.2v22.9h-9.9v-27.4h0Z"/><path class="l" d="M458.35,288.82c.2,7,5.8,10.1,12,10.1,4.6,0,7.8-.6,10.8-1.8l1.4,6.8c-3.4,1.4-8,2.4-13.6,2.4-12.6,0-20.1-7.8-20.1-19.7,0-10.8,6.6-21,19-21s16.8,10.4,16.8,19c0,1.8-.2,3.3-.3,4.2h-26Zm17.2-6.9c.1-3.6-1.5-9.5-8.1-9.5-6.1,0-8.6,5.5-9,9.5h17.1Z"/><path class="l" d="M521.35,304.32c-2.1,1-6.2,2-11,2-12.2,0-20.1-7.8-20.1-19.8s8-20.8,21.7-20.8c3.6,0,7.3,.8,9.5,1.8l-1.8,7.4c-1.6-.7-3.9-1.5-7.4-1.5-7.5,0-12,5.5-11.9,12.6,0,8,5.2,12.6,11.9,12.6,3.4,0,5.8-.7,7.8-1.5l1.3,7.2Z"/><path class="l" d="M541.15,255.52v11.1h9.4v7.4h-9.4v17.2c0,4.7,1.3,7.2,5,7.2,1.7,0,3-.2,3.8-.5l.2,7.5c-1.4,.6-4,1-7.1,1-3.6,0-6.6-1.2-8.5-3.2-2.1-2.2-3-5.8-3-10.9v-18.3h-5.6v-7.4h5.6v-8.8l9.6-2.3Z"/><path class="l" d="M564.35,288.82c.2,7,5.8,10.1,12,10.1,4.6,0,7.8-.6,10.8-1.8l1.4,6.8c-3.4,1.4-8,2.4-13.6,2.4-12.6,0-20.1-7.8-20.1-19.7,0-10.8,6.6-21,19-21s16.8,10.4,16.8,19c0,1.8-.2,3.3-.3,4.2h-26Zm17.2-6.9c.1-3.6-1.5-9.5-8.1-9.5-6.1,0-8.6,5.5-9,9.5h17.1Z"/><path class="l" d="M634.65,248.72v45.9c0,4,.2,8.3,.3,11h-8.8l-.4-6.2h-.2c-2.3,4.3-7,7-12.7,7-9.3,0-16.6-7.9-16.6-19.9-.1-13,8.1-20.8,17.4-20.8,5.4,0,9.2,2.2,11,5.1h.2v-22.1h9.8Zm-9.9,34.1c0-.8-.1-1.8-.2-2.6-.9-3.8-4-7-8.5-7-6.3,0-9.8,5.6-9.8,12.9s3.5,12.3,9.8,12.3c4,0,7.5-2.7,8.5-7,.2-.9,.3-1.8,.3-2.9l-.1-5.7h0Z"/></g></g><g id="c"/><g id="d"/><g id="e"/><g id="f"/><g id="g"/><g id="h"/><g id="i"/><g id="j"/></svg>